<svg xml:space="preserve" style="enable-background:new 0 0 335 335;" viewBox="0 0 335 335" y="0px" x="0px" xmlns:xlink="http://www.w3.org/1999/xlink" xmlns="http://www.w3.org/2000/svg" id="Layer_1" version="1.1">
<style type="text/css">
	.st0{fill:#FFFFFF;}
</style>
<g>
	<path d="M167.5,23.4c38.5,0,74.7,15,101.9,42.2s42.2,63.4,42.2,101.9s-15,74.7-42.2,101.9s-63.4,42.2-101.9,42.2
		s-74.7-15-101.9-42.2S23.4,206,23.4,167.5s15-74.7,42.2-101.9S129,23.4,167.5,23.4 M167.5,20.4c-81.3,0-147.1,65.9-147.1,147.1
		c0,81.3,65.9,147.1,147.1,147.1s147.1-65.9,147.1-147.1C314.7,86.2,248.8,20.4,167.5,20.4L167.5,20.4z" class="st0"></path>
	<g>
		<path d="M20.9,156.5c0,0.2,0.1,0,0.2-0.4c0.2-0.4,0.3-0.1,0.3,0.7c0,0.7,0.1,1.1,0.1,0.8c0,0.2-0.2-5.5-0.3-5.2
			C21.1,152.6,20.8,156,20.9,156.5c0,0,0-0.1,0-0.2C20.8,156.2,20.9,156.3,20.9,156.5z" class="st0"></path>
		<path d="M54.8,74.4C54.9,74.3,54.7,74.4,54.8,74.4C54.7,74.5,54.7,74.5,54.8,74.4z" class="st0"></path>
		<path d="M76.1,54c2.9-2.5,6-4.8,9.2-6.9c0.5-0.4,6.4-4.7,3.5-3.4c-1.7,0.9-3.7,2.4-5.5,3.5c-1.7,1.2-2.5,1.7-4.1,2.9
			c-0.4,0.3-0.3,0.2,0.1-0.1c0.7-0.6,6.4-4.6,2.5-1.6c-2.9,2.3-7.6,5.6-9.5,8.5C73.5,56,74.8,55,76.1,54z" class="st0"></path>
		<path d="M70.1,58.4c-0.4,0.4,0.4-0.1,0.5-0.3S70.4,58.2,70.1,58.4z" class="st0"></path>
		<path d="M53.2,75.6C53.2,75.6,53.4,75.4,53.2,75.6C53.2,75.5,53.1,75.7,53.2,75.6z" class="st0"></path>
		<path d="M61.7,65.7c-5.1,5.2-12.2,13-17.6,23.1c-1.6,2.9-1.4,2.8-0.3,1.2c5.6-8.9,12.3-17,19.7-24.8
			c0.6-0.7,0.7-0.8,0.2-0.5C62.4,65.6,62.8,64.7,61.7,65.7z M56.4,71.5c0,0.1,0,0.1-0.1,0.2C56.2,71.8,56.5,71.4,56.4,71.5z
			 M54.7,74.6c-1.1,1.1-1.6,1.5-2.3,2.2c-1.2,1.3-1.5,1.4-0.6,0.4c2.2-2.7,0.7-1.1,3-3.8c0.9-1.1,1.1-1.3,0.5-0.5
			c-0.7,0.9-0.9,1.7-0.8,1.5c0.1-0.1,0.1-0.1,0.2-0.3c0,0,0.4-0.5,0.9-1s0.6-0.5,0.2,0C55.2,74.1,55.3,74.1,54.7,74.6z M55.5,73.1
			c-0.1,0.1-0.8,1-0.6,0.4C55.1,73.2,55.5,72.9,55.5,73.1z M56.6,71.2c0-0.1,0.1-0.1,0.1-0.2C56.9,71,56.5,71.4,56.6,71.2z M59,68.6
			c0.4-0.4,0.7-0.8,1.1-1.2c0.1-0.1-0.3,0.5-0.9,1.1C58.6,69.2,58.4,69.2,59,68.6z M60.4,67.5c0.1-0.3,0.3-0.5,0.6-0.8
			c0.3-0.4,0.4-0.3,0.1,0.1C60.8,67.2,60.4,67.6,60.4,67.5z" class="st0"></path>
		<path d="M144.4,22.6c-1,0.2-1,0.2,0.1,0s1.9-0.3,1.8-0.3C145.7,22.4,145.1,22.5,144.4,22.6z" class="st0"></path>
		<path d="M150.6,21.8C150.5,21.8,150.5,21.8,150.6,21.8C150.7,21.8,150.7,21.8,150.6,21.8z" class="st0"></path>
		<path d="M150.1,21.8c-0.4,0,0,0,0.1,0C150.4,21.8,150.3,21.8,150.1,21.8z" class="st0"></path>
		<path d="M141.9,23.1C141.5,23.1,141.5,23.1,141.9,23.1C142.2,23,142.2,23,141.9,23.1z" class="st0"></path>
		<path d="M152.9,21.5c-0.1,0-0.4,0-0.3,0h0.1C152.6,21.6,153.1,21.5,152.9,21.5z" class="st0"></path>
		<path d="M106.6,34.1c1.7-0.8,3.2-1.3,3.1-1.2c0,0,1.2-0.5,2.8-1.1c1.6-0.6,2.5-0.9,2-0.7c-0.5,0.2-0.9,0.4-0.9,0.4
			c0.2,0,0.4-0.1,1-0.4c0.5-0.2,0.9-0.3,0.8-0.3c-0.2,0.1,1.6-0.7,1.4-0.4c0.1,0.1,2.5-1.1,3.1-1.2c0.2-0.1,0,0-0.3,0
			c-0.3,0.1,0-0.1,0.6-0.3c0.5-0.2,1.2-0.4,1.7-0.6c-1.9,0.4-5.6,1.7-7.6,2.5c-1.6,0.6-1.4,0.5-3.2,1.3c-1.1,0.5-2.1,0.9-3.1,1.3
			c-0.2,0.1-4.1,1.9-4.1,2C103.6,35.4,104.8,34.9,106.6,34.1z M118.2,29.7c0.1,0-0.1,0-0.1,0.1C118,29.8,118.2,29.7,118.2,29.7z
			 M114.8,30.6C114.7,30.6,114.6,30.6,114.8,30.6C114.9,30.5,114.9,30.5,114.8,30.6z" class="st0"></path>
		<path d="M93.7,40.6C93.7,40.6,93.6,40.6,93.7,40.6C93.5,40.7,93.9,40.5,93.7,40.6z" class="st0"></path>
		<path d="M90.9,42.3c0.2-0.1,0.3-0.1,0.2-0.1c-0.5,0.2,5.9-3.4,5.5-2.9c-0.2,0.2,0.5,0,1.3-0.5
			c0.9-0.5,1.4-0.9,1.2-0.9c-0.2,0,0-0.2,0.5-0.5s0.3-0.2-0.4,0.1c-0.7,0.3-0.6,0.3,0.2-0.2c0.9-0.5,1.6-0.9,1-0.6
			c-2.2,1.1-6.3,3.5-8.4,4.7c0.4-0.2,0.6-0.3,0.4-0.3c-0.6,0.3-1.1,0.7-1.7,1C90.6,42.5,90.7,42.4,90.9,42.3z" class="st0"></path>
		<path d="M96,39.3C96.5,39,96.5,39,96,39.3S95.5,39.6,96,39.3z" class="st0"></path>
		<path d="M90.2,42.7c-0.8,0.5-0.1,0.1,0.2-0.1C90.6,42.5,90.5,42.5,90.2,42.7z" class="st0"></path>
		<path d="M152.1,21.6c1-0.1,1.8-0.2,2.8-0.3c0.8-0.1,0.8-0.1,0.1,0c-1.4,0.1-2.9,0.3-4.2,0.4
			C150.7,21.8,151.3,21.7,152.1,21.6z" class="st0"></path>
		<path d="M97.6,39.6c-0.4,0.2-1.5,0.6-2,1c-0.1,0.1-0.5,0.3-0.3,0.3C95.7,40.7,97,39.9,97.6,39.6z" class="st0"></path>
		<path d="M25.6,132.2c0.3-1.2-0.4,0.4-0.3,0.6C25.3,133.2,25.4,132.8,25.6,132.2z" class="st0"></path>
		<path d="M23.5,137.6C23.4,137.9,23.5,137.9,23.5,137.6c0.2-0.2,0.6-0.1,0.7-0.5s0-0.6-0.1-0.5s-0.1-0.6,0.1-1.5
			c0.3-0.9,0.5-1.7,0.4-1.7c0,0-0.1,0-0.1,0.1s-0.1,0.1-0.1,0s-0.1-0.1-0.1,0C24.2,134.1,23.6,136.9,23.5,137.6z" class="st0"></path>
		<path d="M124.8,27.4c0.8-0.2,1.4-0.4,1.3-0.4c-1,0.3-2.6,0.6-3.2,0.9C123.5,27.8,123.5,27.8,124.8,27.4z" class="st0"></path>
		<path d="M106.4,34.4c1.8-0.9,0.6-0.5-0.2-0.1C105.4,34.7,104.7,35.2,106.4,34.4z" class="st0"></path>
		<path d="M91.2,43c-0.3,0.2-0.6,0.4-0.9,0.5c-0.5,0.5,0.9-0.5,1.1-0.6C91.6,42.9,91.4,42.9,91.2,43z" class="st0"></path>
		<path d="M76.2,53.9c-0.1,0.1,0.8-0.6,0.4-0.3C76.4,53.7,76.3,53.7,76.2,53.9z" class="st0"></path>
		<path d="M106.5,34.1c-0.5,0.3,0,0,0.2-0.1C106.9,34,106.8,34,106.5,34.1z" class="st0"></path>
		<path d="M93.8,41.3C94,41.2,94.1,41.1,93.8,41.3C93.6,41.3,93.2,41.5,93.8,41.3z" class="st0"></path>
		<path d="M111.4,32.3c-0.2,0.1-0.5,0.2-0.6,0.3c-0.3,0.1-0.3,0.2,0.1,0C111.2,32.4,111.5,32.3,111.4,32.3z" class="st0"></path>
		<path d="M113,31.7c0,0-0.3,0.1-0.2,0.1C112.9,31.8,113.4,31.6,113,31.7z" class="st0"></path>
		<path d="M111,32.4c0.1,0,0.2-0.1,0.4-0.2C111.7,32,110.8,32.4,111,32.4z" class="st0"></path>
		<path d="M108.3,33.4C108.2,33.4,108.2,33.4,108.3,33.4c0.1,0,0.6-0.3,0.3-0.1C108.5,33.3,108.4,33.3,108.3,33.4z" class="st0"></path>
		<path d="M94.2,40.9C94.1,41,94.4,40.8,94.2,40.9C94.2,40.8,94.2,40.8,94.2,40.9z" class="st0"></path>
		<path d="M112.4,31.8C112.4,31.8,112.2,31.9,112.4,31.8C112.4,31.9,112.4,31.9,112.4,31.8L112.4,31.8z" class="st0"></path>
		<path d="M25.6,130.3C25.6,130.4,25.5,130.5,25.6,130.3L25.6,130.3z" class="st0"></path>
		<path d="M252.4,47.9c-2.2-1.5-5.2-3.5-9.3-6C244.9,43.1,249.5,46,252.4,47.9z" class="st0"></path>
		<path d="M197.7,24c-0.7-0.2-1.4-0.3-2.2-0.4c-0.9-0.2,0.1,0.1,2.1,0.5c1.8,0.4,3.8,0.8,3.4,0.7
			C200,24.5,199.2,24.3,197.7,24z" class="st0"></path>
		<path d="M296.8,97.9c-1.5-2.7-3.2-5.8-5.2-8.8C291.7,89.5,296.4,97.3,296.8,97.9z" class="st0"></path>
		<path d="M211.4,27.6c-0.1,0-0.5-0.2-0.1,0C211.3,27.5,211.8,27.7,211.4,27.6z" class="st0"></path>
		<path d="M223.1,31.8c0.1,0.1,4.9,2.2,6.3,2.9c1.9,0.8,1.9,0.8,0-0.1C227.4,33.7,225.2,32.7,223.1,31.8z" class="st0"></path>
		<path d="M307.1,121.9c-0.5-1.4-0.6-1.7-0.2-0.6c0.3,0.8,0.5,1.8,0.9,2.6C307.9,124.2,307.6,123.3,307.1,121.9z" class="st0"></path>
		<path d="M308,124.6C308.1,124.7,308,124.6,308,124.6C308,124.5,308,124.6,308,124.6z" class="st0"></path>
		<path d="M302.3,109.2c0,0.2,2,5.1,2.6,6.6c0.8,1.9,0.8,1.9,0.1,0C303.9,113,303.1,111.1,302.3,109.2z" class="st0"></path>
		<path d="M284.3,78.7c-2.1-2.8-4.2-5.3-6.3-7.7c0.3,0.5,6.1,7.4,6.6,8.1C284.5,78.9,284.4,78.8,284.3,78.7z" class="st0"></path>
		<path d="M261.8,55.2c0,0.1,3.9,3.5,5.1,4.6c1.5,1.4,1.6,1.3,0.1-0.1C265.2,58.2,263.5,56.6,261.8,55.2z" class="st0"></path>
		<path d="M181.3,313.7L181.3,313.7C181.2,313.7,181.2,313.7,181.3,313.7z" class="st0"></path>
		<path d="M300.9,227.5c-4.3,9.3-7.1,14.7-14.8,25.8c-0.4,0.5-0.8,1.4-1,1.9s0.9-0.3,2.1-1.9
			c4.1-5.8,8.3-12.4,11.4-18.5c1.4-2.7,3.2-6.2,3.7-9.1C302.2,224.7,301.7,225.6,300.9,227.5z" class="st0"></path>
		<path d="M314.2,176.9c0-0.3,0,0.7,0,0.4C314.2,177.2,314.2,177,314.2,176.9z" class="st0"></path>
		<path d="M313.3,185.8c0.1-0.6,0.3-1,0.3-0.8s0,0.1,0.1-0.2c0-0.2,0-0.3,0.1-0.5c0,0,0.5-8.4,0.7-10.5
			c0.1-3.4,0.2-6.6-0.1-9.8c-0.2-2.1-0.6-3.3-0.6-2.8c-0.2,2.4,0.2,5.1,0.1,8.4c0,2-0.3,4.1-0.3,4.6s0,7.1,0,7.7
			c-0.1,1.1-0.1,2-0.2,2.6C313.1,185.8,313.2,186.5,313.3,185.8z M314.3,167.1c0,0.1,0,0.1,0,0.2l0,0
			C314.3,167.2,314.3,167,314.3,167.1z M313.4,183.7c0.1-0.5,0,0.5,0,0.6C313.3,184.6,313.4,183.9,313.4,183.7z" class="st0"></path>
		<path d="M192.1,23.9c0.8,0.2,3.6,0.8,4.9,1c0.1,0-0.9-0.4-2.2-0.7c-1.3-0.3-2.4-0.5-2.4-0.5s0.2,0.1,0.5,0.2
			s0.5,0.2,0.3,0.1C193,24,192,23.8,192.1,23.9z M194.1,24.1c0.2,0.1-0.2,0-0.2,0C194,24.1,194,24.1,194.1,24.1z" class="st0"></path>
		<path d="M311.2,197.7c0,0.3,0.1-0.2,0.2-0.1c0.2,0,0.4-1.7,0.5-1.9C311.8,195.9,311.2,197.2,311.2,197.7z" class="st0"></path>
		<path d="M310.8,197.5c-0.3,0.4-0.1-0.4-0.2-0.4c-0.1,0.1-0.3,1.2-0.2,1.3c0.1,0.3,0.1,0.7,0.4-0.1
			c0-0.1,0.1-0.1,0.1-0.2c0,0,0.2-1,0.1-1C311,197.3,310.9,197.4,310.8,197.5z" class="st0"></path>
		<path d="M313,154.6c-0.1-0.4,0,0.9,0.1,0.7C313.1,155.2,313.1,154.8,313,154.6z" class="st0"></path>
		<path d="M195.3,24.2c-0.1,0-0.7-0.2-0.6-0.1C194.8,24.1,195.3,24.2,195.3,24.2z" class="st0"></path>
		<path d="M312.9,154.2c0-0.2,0,0.3,0,0.2C313,154.3,313,154.3,312.9,154.2z" class="st0"></path>
		<path d="M179.7,313.9L179.7,313.9C179.6,313.9,179.6,313.9,179.7,313.9z" class="st0"></path>
		<path d="M206.2,26l0.3,0.1C206.5,26.1,206.3,26.1,206.2,26z" class="st0"></path>
		<path d="M291.4,136.8c0.9-1.9,2.1-5.7,2.9-8.2c0.6-2,1.2-4.2,2.1-4.6s1.7-1,1.7-1.4c0-0.3,1.2,0.6,2.2,2.4
			c1.5,2.8,3.1,6.2,3.8,9.3c0.5,2,1.5,3.1,1.8,2.4c0.3-0.6,1.1,0.4,1.7,2.3c1.9,4.9,4.2,29.9,4.6,30.3c0.3,2,1,2,0.8-0.1
			c-0.3-2.9-1-8.6-2.7-21.2c-0.3-2-0.5-3.9-0.4-4.1c0-0.2,0.6,1.2,1.2,3.2c1.5,4.5,1.6,5.1,2.1,7.9c0-3.3-2.3-13.9-3.6-21.1
			c-0.2-1.3-1.6-8.1-1.5-8.7c0.1,0.4,0.1,0.1-0.2-0.7c-12-39.3-40-70.7-75.1-88.4c-16.3-7.6-25.4-10.6-43.1-13.7
			c-0.1,0,1.5,0.3,3.5,0.9c2.6,0.8,5.2,1.9,7.8,2.8c1.8,0.6,2.8,0.9,2.1,0.8s-0.5,0.2,0.5,0.6c0.9,0.4,0.4,0.4-1.1-0.1
			s-1.2-0.2,0.7,0.5c2.5,0.9,7.2,2.9,8.9,4.2c0.8,0.6,1.2,1.3,1,1.6c-0.2,0.2-1.4-0.9-3.2-2.1c-2.9-1.9-7-3.5-10.1-4.5
			c-5.9-1.7,0.6,1.5,2.7,2.5c5.5,2.5-2.2,0.1-3.6,0.1c-3.8-0.7-3.2-0.6-0.4,0.5c1.1,0.4,0.6,0.8-0.8,0.9c-1.3,0.1-2.5,0.5-2.8,0.2
			c-0.3-0.2-1.3-0.1-2.1,0.5s-1.5,1.7-2.2,1.6c-1.7-0.2-1.2-1.6-2.9-1.9c-0.7-0.1-0.6,0.5,0.1,1.2c0.8,0.7,0.6,1.4-0.5,1.8
			c-1,0.3-1.4,1.3-1.2,1.5c0.3,0.3-0.3,0.8-1.3,0.6s-1.6-0.2-1.4,0.1c0.2,0.3-1.5,1.1-3-0.2c-2.1-1.8-0.3-2.6,1.7-2.4
			c2.1,0,2.3-1.8,0.3-2.4c-2.4-0.6-7-1.3-8.7-1.7c-1.3-0.3-4.8-1.6-6-1.2c-0.3,0.1-1.1,0.4-1.7,0.6c-1.9,0.7-2.8,0.5-5.1,1.4
			c-1.6,0.6-2.5,0.6-2.2,1.4c0.3-0.2-0.8,1.4-2.4,2.6c-4,3-9.7,4-12.7,8.2c-1.2,1.7-1.6,3.6-1.6,4c0,0.3,1.6,1.4,3.6,0.8
			c2.3-1.3,4.5-0.3,5.2,2.1c0.5,1.7,1.3,3.1,1.7,3.1s1.6-0.6,2.9-1.1c1.3-0.5,2.6-2.7,3.9-4.2c1.3-1.5,1.7-3.2,1.1-3.6
			c-0.6-0.4-0.9-1.3-0.7-2s1.6-1.8,3.1-2.5s2.2-3.6,3.5-3.9c1.3-0.3,2.6,0.2,2.8,0.3c0.3,0.2,0.3,0.2,0.3,0.2c0,0.2,0,0.3,0.1,0.5
			c0,0-1,0.8-2.2,1.8c-1.2,0.9-2.3,2.5-2.2,3.5s1.6,2.7,3.6,2.7c1.5,0,3.1-0.3,4.6-0.4c2.1-0.1,2,0.7,0,1.1
			c-1.8,0.2-5.1,1.2-4.4,2.7c0.4,0.9,0.4,1.7,0,1.8c-0.3,0.1-1-0.2-1.6-0.5s-2.5,0.2-2.6,1.6c-0.1,1.4,0,2.6-0.2,2.7
			c-1.7,0.9-4.8,1.5-7.7,1.8c-2,0.3-5.1-0.5-7-0.4s-3.5-0.5-3.6-0.9c-0.1-0.3,0.3-1.1,0.8-1.7c1.1-1,1.5-3.3-0.7-2.6
			c-0.8,0.3-1.3,0.7-1.2,0.8s0.2,0.1,0.1,0.1c-0.1,0-0.8,1.2-0.7,3s-2.7,3.4-4.6,4.2L121,65.9c-1.9,0.8-3.5,1.7-3.5,2
			s1.8,0.8,3.3,2.3c2.8,2.7-0.8,7-0.9,7c-5.4,5.6-12.3-4-15.3,5.1c-0.8,2.3-2.8,5.4-2.8,7.3c-0.1,1.2,0.3,2.2,1.4,2.1s2.2,0.4,2.6,1
			s2.3,0.6,4.2-0.3c10.4-4.6,18.4-13.7,29.7-16.7c3.8-1,5.2,2,7.1,4.2c1.3,1.6,4.5,2.9,6,4.3c1.8,1.5,2.9,3.3-0.5,4.2
			c-1,0.5-9.3-0.3-2.9,2.3c1.4,0.6,2.7-0.2,2.9-0.8c0.2-0.7,0.6-1.1,0.7-1.1c0.1,0,1-0.2,1.9-1c0.8-0.8,1.2-2,1.2-2.7
			c-0.1-0.7,0.6-1.4,1.3-1.3s0.7-1.4-0.8-2.8c-2.2-2.5-9.1-3.9-8.7-7.6c0.5-1,2.8,0.2,4.5,1.4c2,1.4,4.3,2.4,6.4,3.6
			c1.8,1.1,3,3.9,3.7,5.8c0.7,2,1.9,4,3.3,5.3c1.5,1.4,3.5,0.9,3.8,0.3c0.3-0.7,0.7-1.2,1.1-1.2c0.4,0,0.7-0.3,0.8-0.6
			c0.1-0.3-0.9-1.1-1.9-2.3c-0.9-1.1-0.5-2.3,0.1-2.3c0.6,0.1,1.2-0.2,1.4-0.5s1.4-0.9,2.8-0.9c1.4,0.1,2.2,1.3,2.2,1.7
			c-0.1,1.2,2,1.9,1.2,3.2c-0.2,1,4.4,4.7,5.9,4.8c2,0.5,5.1-0.5,7.1-0.6c0.8,0,1.9-0.1,3.5-0.2c2.1-0.1,3.6,0.4,3.6,1.1
			c0,0.5,0,1,0.1,1.4c3,12.7-12,11.3-15.9,10.2c-12.6-3.3-16.4-4.3-17.8-2.7c-1.3,1.6-2.5,4.3-4.6,4c-4.4-0.6-11.3-3.6-15.3-5.6
			c-1.9-0.9-2.8-2.4-2.1-3.3s0.8-2,0.6-2.3s-0.3-0.8-0.1-1.2c0.1-0.4-1.2-1.5-3.3-1.5c-2.4,0-6.8,0.4-15.2,1
			c-4.7,0.4-9.2,1.8-13.9,2.3c-2,0.2-4.7,1.5-6,3.1c-4,5.2-10.3,12.7-13.8,14.1c-5.3,2.1-13,15.8-13,15.9L75.8,146
			c-0.1,2.1,0.7,5.1,1.8,6.8l3.6,5.3c1.2,1.7,3.5,4,5.2,5.2c3.2,2.2,7.9,5.2,8.3,5.1c27.7-6.2,27.7-6.2,29.7-4.7
			c5.5,4.1,5.5,4.1,6.9,3.8c6.1-1.1,6.3,5.2,6.3,5.2c-0.6,3-3,5.6-1.8,9c1.4,4.1,6,5.3,7.9,8.9c5.4,10,4.6,17.3,4.6,17.3
			c-9.7,12.8,17.2,48.1,17.8,48.1c9.2-1.1,24-4.5,26.9-15.6c0.5-2,1.6-4.2,3.1-4.7c0.9-0.3,1.7-0.6,2.4-1.3c2.9-3.6-1.3-8.9,3-12.1
			c4-3.1,9.5-4.7,12-9.6c4-7.8-4.2-14-3.1-21.4c0.2-1.2,0.2-1.2,8.1-12c0.2-0.3,0.5-0.7,0.7-1c14.5-18.1,18.2-22.7,18.9-26.2
			c0.4-2-1.7-3.8-3.7-3.2c-5.8,1.8-11.8,5.3-14.3-2.3c-0.2-0.4-0.7-0.9-1.6-1.6c-9.6-7.8-10.7-8.8-24.7-34.4c-1-1.8-0.9-2.8-0.1-1.9
			c0.9,0.8,3.2,0.5,4.5,1.5c1.3,0.9,13.8,17.9,15.2,19.5l3.4,5.5c1.5,2.5,3.1,9.1,4.5,10.7c8.2,1.3,39.8-17.8,28.8-25.8
			c-1.6-1.2-2.8-2-3.6-2.7c-1.6-1.2-3.8-2-5.7-1.2c-2.7,1.3-4,1.6-5,0.8c-1.6-1.3-2.2-2.8-2.4-2.4s-0.6,0.6-1,0.5s-1.2-1.8-2.5-3.4
			c-0.6-0.7-1.3-1.4-1.9-2.1c-1.4-1.5-1.3-3.9,0.5-3c1.3,0.7,3.4,1.9,6.5,3.7c2,1.2,2.5,1.4,5.6,1.5c2.1,0,4.3,0.7,4.9,1.6
			c0.9,1.2,1,1.3,1.4,1.4c1.6,0.6,6.1,1.8,13.4,0.6c3.4-0.6,4.8,2.3,6.8,4.2c1.5,1.4,2.2,3.3,3.3,4.7c1.1,1.5,3,1.5,3.3,1.3
			s0.6-0.6,0.7-1s1.4,0.4,2.7,2.1c5.7,7.6,4.1,18.2,8.3,26.4c0.9,1.8,2.9,1.8,3.1-0.3c0.2-2,0.4-5.3,0.8-11
			C289.7,140.1,290.7,137.9,291.4,136.8z M200.6,25.5C200.3,25.4,200.3,25.4,200.6,25.5C200.9,25.6,200.9,25.6,200.6,25.5z
			 M207.5,28.4c-0.6-0.2-1.1-0.6-1.7-0.8c-0.4-0.1,0.3,0,0.4,0.1c0.2,0.1,3.4,1.2,3.8,1.4c0.2,0.1-0.1,0.1-0.5-0.1
			C208.3,28.5,208.4,28.6,207.5,28.4z M142.7,45.8c-0.1-0.1,0.1-0.1,0.1-0.1C142.9,45.7,142.8,45.8,142.7,45.8z M160,46
			c-0.1,0.3-0.4,0.3-0.7,0.1c-0.2-0.1-0.3-0.2-0.1-0.2s0.3,0,0.3,0C160,45.9,160,45.9,160,46z M166.3,29.8c-0.1,0,0.4-0.1,0.3,0
			C166.6,29.9,166.4,29.8,166.3,29.8z M168.8,88.1c-0.1,0.4-0.5,0.1-0.8-0.1C167.4,87.5,168.9,88.1,168.8,88.1z M177.2,34.1
			c-0.5-0.2-0.3-0.4,0.1-0.2C177.5,34,177.5,34.2,177.2,34.1z M180.3,83.2c-0.4,0-0.8,0-1.2,0c-0.7,0-0.8-1.4,0.5-1.4
			s2.3,0.4,2.3,0.5C181.5,83.1,180.7,83.2,180.3,83.2z M200,81.7c-3-0.1-5.4-2.1-8.4-2.1c-2.6,0-4.6,2-7.2,1.9
			c-2.2,0-3.4-0.1-4.4-0.7c-0.2-0.1-0.3-0.2-0.9-1c-0.4-0.6-0.4-1.6,0-2.2s0.7-1.1,0.7-1.1c0.4-0.7,0.3-1.6,0.6-2.3
			c0.3-0.5,0.9-0.2,1.2-0.6c0-0.1,0-0.1,0-0.7c0.1-0.7,1.2-2.1,2.1-2.6c1.2-0.7,1.7,0.7,3.2,0.9c1.1,0.1,1.7,0.4,1.4,0.7
			c-1,0.9-0.2,0.5,0.6,1.3c0.7,0.6,0.4,1.3,1,1.4c0.1,0,1.2-0.4,2.4-0.9s1.3-1.1,0.3-1.3c-1-0.2-0.1-2.3,1.9-2.9
			c1.6-0.6,3.9-0.3,3.2,0.1c-0.5,0.3-0.9,0.7-0.7,0.9c0.2,0.2,0,1-0.4,1.7c-0.5,0.7,0.2,1.7,2.1,2.6c2.3,1.2,7,2.4,7.6,5.1
			c0.1,1.1-1.5,1.9-2.7,1.9L200,81.7z M211,33.8c0,0,0.3,0.1,0.3,0.2C211.4,34.1,211,33.8,211,33.8z M214.8,32.6c0,0.1-0.3,0-0.4,0
			c-0.1,0-0.1-0.1,0.1-0.1C214.6,32.5,214.8,32.5,214.8,32.6z M227.1,90.3c-1.1-0.6-3.8-1.5-4.4-2.2c-0.3-0.3-0.9-1.4-0.9-1.9
			c0,0,0.4-3,0.5-3.2c0.1-0.1,0.3-0.2,0.4-0.3c0.3-0.1-1-0.8-2.6-2.1c-2-1.6-4-3.6-4.4-4.7c-0.3-1-2-1.8-1.6-3c0.3-1,0.3-1,0.4-1.1
			c0,0,2.1-2,3.4-2.6c1.7-0.8,4.3-0.8,4.9,0.5c0.8,1.3,0.2,2-1.4,2.5c-0.9,0.3-0.5,1.5-0.8,1.6s0.5,1.1,1.9,2.2s2.8,1.7,2.8,1.8
			c0.2,0.6,0.5,1.2,0.7,1.8c0,0.1,0.2,0.2,0.4,0.1c0.1,0,0.1-0.1,0.2-0.3c0.1-0.6,0.8-0.6,1.1-0.5s0.3,0.1,1.4,1
			c0.7,0.6,1.3,1.2,1.3,1.2c0,0.6-0.3,0.7-1.3,0.6c-0.9-0.1-1.5,0.2-1.4,0.7s0.2,0.6,0.4,0.8c0.4,0.3,1.2,0.1,1.3,0.8
			c0.1,1,1.2,1.3,1.6,2c0.1,0.1,0.1,0.2,0.7,1.9c0.4,1.1-0.1,2.1-1.1,2.4C228.8,90.8,228.8,90.8,227.1,90.3z" class="st0"></path>
		<path d="M147.1,53.1C147,53.1,147,53.1,147.1,53.1L147.1,53.1z" class="st0"></path>
		<path d="M54.5,74.4c-0.1,0.1,0.1-0.7,0.8-1.5c0.7-0.9,0.5-0.6-0.5,0.5c-2.3,2.7-0.8,1.1-3,3.8
			c-0.9,1.1-0.6,0.9,0.6-0.4c2.2-2.3,2.2-1.8,3.5-3.6c0.4-0.5,0.3-0.6-0.2,0c-0.5,0.5-0.9,1-0.9,1C54.7,74.3,54.6,74.4,54.5,74.4z
			 M53.2,75.6C53.1,75.7,53.2,75.5,53.2,75.6C53.3,75.4,53.2,75.6,53.2,75.6z M54.7,74.5C54.7,74.4,54.7,74.4,54.7,74.5
			C54.8,74.3,54.7,74.5,54.7,74.5z" class="st0"></path>
		<path d="M59.9,266.8c-0.3-0.9-2.9-3.9-4.3-5.5c-1.3-1.6-1.9-2.7-1.4-2.4c0.6,0.2,0.5-1.2-0.4-3c-1-1.9-2.6-5-3.4-7
			c-3-7.7-4.3-11.3-4.2-13c0.1-2.1,3.2-3.4,2.9-5.5c-0.5-5.2-2.8-12.8-2.8-12.9c-2-5.8,1.2-11.4,0.7-17.1c0,0-0.3-2-0.8-3.9
			c-0.6-2-1.9-3.2-1.9-3.2s-1.8-0.4-3.2-1.9c-2.5-3-3.8-4.8-7.3-4.1c-0.1-0.1-0.3-1.5-1.3-2.6s-2.6-1.5-2.7-0.9s-0.3,0.3-0.6-0.6
			c-0.3-0.9-1.3-3.2-1.7-5.2c-0.9-4.3-0.1-4-1.6-8.6c-0.7-1.9-3.3-3.8-3.3-5.7c0-2-1-3.8-1-4.4c0-0.8-0.1-1.6-0.2-2.5
			c0-0.7-0.2-1-0.3-0.7c-0.2,0.5-0.3,0.7-0.3,0.4c-3.4,41.2,11.9,82.3,38.4,110.7c1.4,1.5,2.1,2.2,1.5,1.5
			C59.9,267.6,59.5,267.4,59.9,266.8z M26.9,185.1C26.9,184.9,26.9,184.8,26.9,185.1C27,185,27,185.2,26.9,185.1z M27.3,182.8
			c-0.2-0.7,0.3-1.1,0.3-1.1C27.7,182.2,27.8,184.4,27.3,182.8z M28.4,181.8c-0.1,0-0.4,0.1-0.5,0.1c-0.2-0.1-0.1-0.5,0.2-0.4
			C28.4,181.5,28.4,181.8,28.4,181.8z M29.5,185.7c-0.3,0.3-0.5,0-0.3-0.3C29.3,185,29.7,185.5,29.5,185.7z M33.7,187.6
			c0,0-0.1-0.5,0-0.3V187.6z" class="st0"></path>
		<path d="M59.1,68.6c0.6-0.6,1-1.2,0.9-1.1c-0.4,0.4-0.7,0.8-1.1,1.2C58.4,69.2,58.6,69.2,59.1,68.6z" class="st0"></path>
		<path d="M81.9,48.5c1.6-1.3,1.9-1.5,0.6-0.6c-8.1,5.8-17.2,13.8-20.8,17.8c0.4-0.4,0.8-0.5,0.8-0.5
			c0.4,0.1,1.5-0.7,2.1-1.2c2.3-1.6,5.6-4.3,7.5-6.8C74.8,53.7,78.5,51.2,81.9,48.5z M70.2,58.5c-0.6,0.4,0.3-0.4,0.3-0.3
			c0.1-0.1,0.2-0.1,0.2,0C70.5,58.2,70.3,58.4,70.2,58.5z" class="st0"></path>
		<path d="M164.6,20.9c-0.3,0,0.4,0,0.3,0C164.8,20.9,164.7,20.9,164.6,20.9z" class="st0"></path>
		<path d="M120,29.1c0.2-0.1-3.4,1.5-3.2,1.3c0.1-0.1-0.2,0-0.7,0.1c-3.4,1.5-9.6,4.1-13.1,6c-4.2,2.7-10,5.8-12,9.2
			c-0.2,0.5,1.3,0.3,3-0.8c2.3-1.5,3.3-2.4,6.5-4c1.7-0.9,2-1,5.9-2.9c1.8-0.9,3.1-1.5,2.7-1.3c0.7,0.4,8.6-3.3,9.3-3.3
			c0.2,0.1,4.9-1.2,6.1-1.5c2-0.5,3.3-1.2,2.8-1.3c-0.4-0.1-0.2-0.3,0.7-0.7c1.2-0.5,2.1-0.8,1.1,0c-0.2,0.1,1.2,0.8,2.5-0.4
			c1.3-1.2,2.2-1.9,2-1.8c-0.2,0.2,0.3,0.4,1,0.1c0.9-0.4,1-1.3,1.5-0.9c0.2,0.3,2.2-0.2,2.2-0.5c0-0.1,0.8-0.2,1.6-0.3
			c0.8-0.2,1.3-0.6,1.2-0.6c0-0.2,4.4-1.7,4.6-1.6c0.9-0.1,4.7-0.7,6.1-1.1c7.3-1.4,6.9-1.4,8-1.5c0.1,0-0.5,0-1.3,0
			c-0.8,0.1-0.8,0.1,0.1,0c0.4,0,1-0.1,1.6-0.1c-8.3,0.3-18.3,1.6-27.8,4.1c-5.1,1.5-8,2.2-12.3,3.7c-0.6,0.2-0.8,0.4-0.6,0.3
			C119.9,29.1,120.1,29.1,120,29.1z M109.4,33.7C109.2,33.8,109.2,33.7,109.4,33.7C110.1,33.4,109.6,33.6,109.4,33.7z M155,21.8
			c-0.1,0-0.3,0-0.4,0.1C154.2,21.8,155.1,21.7,155,21.8z M150.2,22.7c0.4-0.1-0.4,0.1-0.4,0.1c-0.1,0-0.1,0,0,0
			C149.9,22.7,150.1,22.7,150.2,22.7z M149.2,23L149.2,23C149.1,23,149.1,23,149.2,23z M127.2,29.8c0.1,0-0.2,0.1-0.3,0.2
			C126.6,30.1,127.2,29.8,127.2,29.8z M126.5,30.1c-0.2,0.1-0.5,0.2-0.6,0.2C125.8,30.3,126.6,30,126.5,30.1z M125.6,30.7
			C125.8,30.6,125.5,30.8,125.6,30.7C125.5,30.8,125.5,30.7,125.6,30.7z" class="st0"></path>
		<path d="M105.8,34.4c-1.9,0.9,2.3-1.1,1.8-0.8C107,33.8,106.3,34.1,105.8,34.4z" class="st0"></path>
		<path d="M101.3,36.5c-0.2,0.1-0.5,0.2-0.7,0.4c-0.1,0,0,0,0.1,0C100.8,36.8,102,36.1,101.3,36.5z" class="st0"></path>
		<path d="M97.8,38.3c-1.1,0.6-3.1,1.7-4.4,2.4c-0.5,0.3-1,0.6-1.4,0.9c-0.4,0.2-0.1,0.1,0.5-0.3
			C94.1,40.4,97.3,38.6,97.8,38.3z" class="st0"></path>
		<path d="M97.2,38.6C97.1,38.7,97.1,38.7,97.2,38.6C97.4,38.5,97.4,38.5,97.2,38.6z" class="st0"></path>
		<path d="M98.5,38c-0.2,0.1-0.7,0.4-0.6,0.3C98.1,38.2,99.2,37.6,98.5,38z" class="st0"></path>
		<path d="M91.4,42C91.1,42.2,91.1,42.2,91.4,42C91.7,41.8,91.7,41.8,91.4,42z" class="st0"></path>
		<path d="M102.7,36c0.6-0.3,0.6-0.4,1.1-0.6c-0.5,0.2-3.5,1.7-4.5,2.2c-0.8,0.4-0.9,0.5-0.2,0.2
			C100.3,37.2,101.2,36.7,102.7,36z" class="st0"></path>
		<path d="M90.4,42.6c-0.4,0.2-0.8,0.5-1.1,0.7c-0.1,0.1,1.2-0.7,1.3-0.8C90.7,42.4,90.6,42.5,90.4,42.6z" class="st0"></path>
		<path d="M314.5,171.7c0,0.5,0,1.1,0,1.3s0-0.2,0.1-1C314.5,171.3,314.5,171.2,314.5,171.7z" class="st0"></path>
		<path d="M314,180.9c0.2-2.4,0.4-6.2,0.5-8.4c0-0.1-0.1,1.2-0.1,1.2c-0.1,1.2-0.3,4.3-0.4,6.8
			C313.8,182.6,313.8,182.8,314,180.9z" class="st0"></path>
		<path d="M234.3,209.8c-0.4-2-1.9-2.7-2.1-2.1c-0.2,0.5-0.4,1-0.7,1.4c-0.5,0.5-1.2,0.7-1.7,1.2
			c-0.6,0.7-0.6,1.8-1.4,2.4c-1.8,1.7-4,2.3-5.6,2.8c-1.3,0.4-1.5,0.4-2.5,2.9c-0.9,1.8,0.5,3.7,0,5.5c-0.6,2.2-3,3.2-3.3,5.6
			c-0.1,0.5,0.3,5.1,0.4,5.3c0.7,1.6,3.3,1.7,5.5,0.7c1.1-0.6,1.4-1,2.1-2.3c2-3.4,3.3-7,5-10.5c0.2-0.6,3.1-6.6,2.9-7
			c0-0.5,0.5-0.9,1-1.1c0.3-0.1,0.4-0.3,0.5-0.8C234.4,213.8,234.6,211.8,234.3,209.8z" class="st0"></path>
		<path d="M130.9,58.5c-0.7-0.2-1.3-0.6-1.3-1.3c0-0.4,0-0.8-0.1-1.2c-0.1-0.5-0.7-0.5-1-0.9c-0.4-0.6,0.1-1.2-0.2-1.8
			c-0.1-0.3-0.3-0.4-0.6-0.5c-0.4-0.2-0.1-0.9,0.8-1.6c0.9-0.7,0.8-1.4,0-1.5c-0.8,0-1.2-0.3-0.7-0.6c0.3-0.2,0.6-0.4,0.8-0.6
			c0.3-0.2,0.2-0.4-0.1-0.4c-1.1,0-1.7,0-2.6,0.7c-1.1,0.8-2,1.5-2.1,1.4c-0.3-0.3-0.8,0-0.4,0.4c0.2,0.1,0.1,0.6-0.3,1
			s-0.5,0.6-0.2,0.5c0.8-0.1,0,0.7,0.5,0.8c0.2,0,0.4,0.6,0,1.2c-0.4,0.5-0.7,1-0.7,1c0.6,0,1.2,0,1.8,0c0.4-0.1,0.1,0.6,0.2,0.9
			c0,0.2,0.3,0.4,0.3,0.6c0,0.3,0,0.4-0.5,0.9c-0.3,0.3-0.4,0.4-1.2,0.5c-0.7,0.1-1.3,0.5-1.3,0.9c0,0.9-0.7,1.1-1.3,1.5
			c-0.7,0.3-0.5,0.6,0.3,0.8s0.9,0.7,0.4,0.8c-0.9,0.1-1.6,0.6-2.3,1.1c-0.7,0.5-1.3,1-1.3,1c0.3,0.1,1.7-0.5,2.2-0.4
			c0.6,0,1.1-0.4,1.7-0.6c1.4-0.4,2.8-0.2,4.3-0.3c2.1,0,3.7-0.9,3.7-0.9s0-0.3-0.2-0.4c-0.2-0.2,0.2-0.6,0.8-1
			C131.4,59.7,132,58.8,130.9,58.5z" class="st0"></path>
		<path d="M186.9,24.8c0-0.3-0.4-0.3-0.5-0.5c0,0,0.5-0.5,0.2-0.8s-1.8-0.5-2.1-0.5c0,0,0.1,0.1,0.3,0.2
			s0.1,0.3-0.1,0.4c-0.3,0-0.6,0.2-0.5,0.4c0.1,0.2,0.3,0.3,0.2,0.3v0.1c0,0,0.4,0.3,0.9,0.6c0.4,0.3,0.8,0.8,1.1,0.9
			s0.4,0.2,0.4,0.2s0,0.4,0.5,0.7c0.4,0.3,0.5,0.8,0.8,1c0.6,0.4,1.1,0.2,1.7,0.3c0.8,0.2,1,0.4,1.4,0.7c0.5,0.1,2.6,0.2,2.8,0.2
			c-0.4-0.2-4.8-1.9-5.1-2.4c-0.3-0.3-1.2-1.1-1.4-1.4C187.2,25.1,187,25,186.9,24.8z" class="st0"></path>
		<path d="M313,178.9c0.2-4-0.8-7.3-1.8-10.9c-0.5-2.3-0.9-3.5-0.9-3.6c-0.1-0.4-0.4-0.6-0.7-0.8
			c-0.5-0.3-0.8,1.1-0.3,3c2.9,7.6,1.4,15.9,2.6,23.8c0,0.1,0.4-1.3,0.7-3.1c0.3-1.8,0.6-3.3,0.6-3.5c0.1-0.3,0.1-0.7,0.1-1.6
			c0-0.8-0.2-0.9-0.2-0.4s-0.1,0.9-0.1,0.8C312.9,182.7,313,181,313,178.9z" class="st0"></path>
		<path d="M115.9,39.3c-0.7,0.3,0.8,0.3,0.9,0.7c0.2,0.2,0.5,0.4,1.3,0.3c0.1,0,6.2-1.8,7.5-2.7
			c0.4-0.2,0.6-0.6,0.4-0.9c0-0.2,0.2-0.3,0.2-0.5s-0.2-0.7-0.4-0.6c-0.6,0.3-1.1,0.5-1.4,0.5c0,0-0.9,0.1-1,0.1
			c-0.3,0-0.6-0.2-0.9,0c-0.6,0.4-1,0.2-1.9,0.6c-0.5,0.3-0.7,0-0.3-0.3c0.5-0.5,0.5-0.6,0-0.6c-0.3,0.1-0.5,0.3-0.7,0.4
			c0,0-0.6,0-1.2,0.3s-0.8,0.7-0.4,0.6c0.4-0.1,0.6,0.3,0.2,0.5c-0.5,0.3-0.8,0.2-1.2,0.4c-0.2,0.1,0.3,0.2,0.1,0.5
			C116.9,38.7,116.3,39.2,115.9,39.3z" class="st0"></path>
		<path d="M161.7,22.1c-0.3,0.4,0.2,0.5,0.7,0.2c0.3-0.2,0.2,0,0.5,0c0.1,0-0.1,0.1-0.5,0.2s-0.6,0.3-0.5,0.3
			s0.2,0.1,0,0.1c-0.4,0.3,0.7,0.7,0.8,0.5c0.2-0.3,0.6-0.5,0.8-0.6c0.2-0.2,0.6-0.7,1-0.6c0.1,0,0.2-0.2,0-0.2
			c-0.1,0-0.4,0-0.5-0.1c0-0.1-0.1-0.1-0.2-0.1c-0.1-0.2,0-0.2-0.3-0.2c-0.2,0-0.4,0.2-0.5,0.4c-0.1,0,0-0.3-0.2-0.3
			c-0.1,0-0.4,0.2-0.5,0.1l0.1-0.1c0-0.1-0.8,0-0.9,0.1c-0.1,0.1,0,0.1,0.1,0.1C161.9,22,161.7,22.1,161.7,22.1z M162.5,22.8
			C162.4,22.8,162.4,22.7,162.5,22.8C162.7,22.7,162.7,22.8,162.5,22.8z" class="st0"></path>
		<path d="M179.4,21.4C179.5,21.4,179.5,21.4,179.4,21.4c-0.2,0,1.4,0.2,0.6,0.1c-0.3,0,0.5,0.1,1.9,0.2
			c1.4,0.2,2.2,0.2,1.9,0.1c-1.3-0.2-2.7-0.3-3.7-0.4c0.1,0-1.1-0.1-2.7-0.2c-1.6-0.1-1.8-0.1-0.5,0
			C177.8,21.3,178.6,21.3,179.4,21.4z" class="st0"></path>
		<path d="M58.9,70.6c0.2,0.1,0.5-0.1,0.6-0.1c0,0,0.1,0.3-0.2,0.6c-0.9,0.9-0.7,0.7,0.8-0.5c2.4-1.9,1.7-1.5,3.2-3.2
			c0.1-0.1,0.3-0.4,0-0.4c-0.2,0-0.3-0.4,0.1-0.7c0.3-0.3,0.5-0.5,0.4-0.5c0.2-0.5,1.8-1.8,2.2-2.2c0.1-0.6-4.6,4-5.4,4.7
			c-0.5,0.5-1.9,1.9-2,2.2C58.7,70.5,58.8,70.5,58.9,70.6z" class="st0"></path>
		<path d="M112.8,61.4c0.8-0.1,5.1-1.6,5.2-1.6c0.7-0.4,0.8-0.7,1.7-2.6c0.1-0.4,0.1-0.4,1.6-1.3
			c0.2-0.1,0.4-0.8-0.1-1.4c-0.2-0.2-0.6-0.2-1.3-0.2c-1.2,0-1.5,0.2-1.7,0.3c-0.6,0.3-0.8,1-1.3,1.4c-0.2,0.1-0.3,0.2-0.9,0.2
			c-0.5,0-1.3,0.3-1.5,0.8c-0.3,0.5-0.4,1-0.3,1.2s-0.4,0.8-1.2,1.5c-1.2,1-1.2,1-1.2,1.3C111.7,61.3,112.5,61.5,112.8,61.4z" class="st0"></path>
		<path d="M164.6,21.8c0.5,0,0.9,0.2,1.4,0.1c0.3-0.1,0.5-0.2,0.4-0.3c-0.1-0.1-0.7-0.1-0.8-0.1c-0.2,0-0.2,0-0.4,0
			c-0.1,0.1-0.2,0.1-0.4,0.1c-0.1-0.1-0.8,0-0.7,0.2C164.4,21.7,164.5,21.7,164.6,21.8z" class="st0"></path>
		<path d="M311.8,192.3c-0.2,0.9-0.1,1-0.1,1.8c-0.1,0.5-0.1,0.6,0,1.1c0,0.3,0.1,0.4,0.1,0.4l0,0c0,0.2,0,0.5-0.1,0.7
			c0,0.3,0,0.1,0.1-0.3c0.2-1,0.4-2.2,0.4-3.1c0-0.3,0.1-0.5,0.1-0.7C312.3,191.8,311.9,191.8,311.8,192.3z" class="st0"></path>
		<path d="M187.9,22.3c-1.1-0.2-3.8-0.5-4.9-0.6C184.7,21.9,186.3,22.2,187.9,22.3z" class="st0"></path>
		<path d="M291.3,156.7c-0.1,2.3,0.1,4.4,0.9,5.2c0.6,0.6,1.9-0.5,2-2.1c0-0.4-0.3-2-0.9-3.6
			C292.6,154.3,291.4,154.7,291.3,156.7z" class="st0"></path>
		<path d="M165,22.9c0.2,0,0.3-0.1,0.5,0.1c0.1,0.1,0.6-0.1,0.8-0.2c0,0-0.5-0.1-0.5-0.2c-0.1-0.1-0.2,0-0.3-0.1
			c-0.2-0.1-0.2-0.2-0.4-0.2s-0.4,0.1-0.2,0.2C165.1,22.7,164.7,22.9,165,22.9z" class="st0"></path>
		<path d="M170.4,21.3c0.1-0.1,0.5,0.2,0.8,0.1c0.2,0,0.3,0,0.2-0.1c-0.2-0.1,0-0.1-0.2-0.1c-0.1,0-0.7-0.1-0.7,0
			c0.1,0,0.2,0,0.3,0c0.1,0.1-0.6-0.1-0.7,0C170,21.3,170.5,21.3,170.4,21.3z" class="st0"></path>
		<path d="M309.3,129.2c-0.1-0.5-0.1,0,0.2,1.1c0.3,1.1,0.5,1.4,0.3,0.8C309.8,130.7,309.5,129.8,309.3,129.2z" class="st0"></path>
		<path d="M115.4,30.8c-0.6,0.1-2.3,0.8-3,1.3C113.7,31.8,114.3,31.4,115.4,30.8z" class="st0"></path>
		<path d="M139.6,86.6c1.1-0.4,1.5-1.6,1.6-2.7c0.1-0.4,0.1-0.6-0.3-1.3c0-0.1,0-0.1-0.3-0.2c-0.2-0.1-0.7,0.1-1.2,0.3
			C138.2,83,137.9,86.9,139.6,86.6z" class="st0"></path>
		<path d="M171.5,21.2c0.8,0.1,0.6,0,0.1-0.1c-0.4,0,0,0-0.4,0C171,21.1,171.2,21.2,171.5,21.2z" class="st0"></path>
		<path d="M172.7,21.2c-0.1,0-0.4,0-0.4,0c0.2,0,0.4,0,0.5,0.1C173.5,21.3,172.9,21.2,172.7,21.2z" class="st0"></path>
		<path d="M190.5,31.3c0.5,0.1,0.3-0.6-0.1-0.8c-0.4-0.1-0.5-0.2-0.8-0.2C189,30.6,190.2,31.3,190.5,31.3z" class="st0"></path>
		<path d="M151.2,52.3c-0.4-0.3-1,0.1-1.4,0.2c-0.3,0.1-0.8,0.1-0.9,0.5c-0.1,0.2-0.1,0.2,0.4,0.8
			C150.1,54.8,151,53.1,151.2,52.3z" class="st0"></path>
		<path d="M172.9,21.3c0.2,0,0.5,0.1,0.7,0.1C173.5,21.3,172.9,21.2,172.9,21.3z" class="st0"></path>
		<path d="M172.8,21.2c0.2,0,0.2,0,0.1,0c-0.2,0-0.4,0-0.6-0.1c-0.2,0-0.2,0-0.1,0C172.5,21.1,172.6,21.1,172.8,21.2z" class="st0"></path>
		<path d="M59.2,72c0.1,0.3,1.1-1,1.4-1.2c0,0,0.4-0.8,0-0.5c-0.2,0.1-1.1,1.2-1.3,1.3C59.3,71.7,59.3,71.8,59.2,72z" class="st0"></path>
		<path d="M60.4,67.5c0,0.1,0.4-0.3,0.7-0.7c0.3-0.4,0.2-0.5-0.1-0.1C60.7,67,60.5,67.2,60.4,67.5z" class="st0"></path>
		<path d="M235.2,282.5c-0.4,0-1.3,1-0.8,1.2c0.2,0,0.4,0.1,0.4,0.1c0.4-0.2,0.9-0.5,1.3-0.7c0,0-0.2,0-0.5-0.1
			C235.3,282.9,235.2,282.5,235.2,282.5z" class="st0"></path>
		<path d="M86.1,289.6c-0.2-0.1-0.4-0.2-0.4-0.2c0.4,0.3,0.7,0.6,0.9,0.8C87.9,291.1,86.4,289.7,86.1,289.6z" class="st0"></path>
		<path d="M140.7,79.1c-0.6,0.2-1.2,0.1-1.2,1.2c0,0.3,0.1,0.5,0.3,0.7C140.7,81.9,142.2,79,140.7,79.1z" class="st0"></path>
		<path d="M193.3,94.7c0,0,0.1-0.2,0-0.5c0,0-0.2-0.1-0.4-0.1c-1-0.2-3.1,0.5-2.5,1.1C191.1,96,193.1,94.8,193.3,94.7z" class="st0"></path>
		<path d="M172.6,94.8c1.4,0.4,1.4,0.4,1.5,0.4c0.6,0.1,1.2-0.1,1.9-0.5c0.1,0-0.9-0.2-2.2-0.4
			C171.6,93.9,169.8,93.9,172.6,94.8z" class="st0"></path>
		<path d="M170.8,21c-0.2,0-0.8-0.1-0.3,0C170.8,21.1,170.9,21.1,170.8,21z" class="st0"></path>
		<path d="M55,73.4C54.8,73.7,54.8,73.8,55,73.4c0.1-0.1,0.3-0.2,0.4-0.4C55.5,73.1,55.3,73.1,55,73.4z" class="st0"></path>
		<path d="M195.3,25.9c0,0.1,0.1,0.1,0.3,0.2s0.6,0.2,0.8,0.2c0.1,0,0-0.1-0.1-0.1C196.1,26,195.5,25.8,195.3,25.9z" class="st0"></path>
		<path d="M166.2,47.8c0.2,0.4,1.1,0,1.5-0.1c0.1-0.2-0.4-0.4-0.4-0.6c-0.1-0.2,0-0.5-0.3-0.3c-0.1,0.1,0,0.3-0.2,0.5
			C166.7,47.5,166.2,47.6,166.2,47.8z" class="st0"></path>
		<path d="M155,21.8c0.1,0-0.8,0.1-0.4,0.1C154.7,21.8,154.8,21.8,155,21.8z" class="st0"></path>
		<path d="M142.7,25c-0.6,0.2-0.1,0.2,0.2,0.1C143,25,142.9,24.9,142.7,25z" class="st0"></path>
		<path d="M86.8,290.4L86.8,290.4L86.8,290.4z" class="st0"></path>
		<path d="M85.8,289.6C85.7,289.6,85.6,289.6,85.8,289.6c0.2,0.2,1.1,0.9,1.2,0.8C86.6,290.1,86.1,289.9,85.8,289.6z" class="st0"></path>
		<path d="M23.6,136.8c0-0.1,0,0-0.1,0.2C23.4,137.5,23.6,137,23.6,136.8z" class="st0"></path>
		<path d="M161.3,49.1c0-0.1-0.5-0.2-0.8,0.1s0.3,0.7,0.5,0.5C161.3,49.6,161.4,49.4,161.3,49.1z" class="st0"></path>
		<path d="M172.3,21.3C172.2,21.3,172.2,21.4,172.3,21.3c0.2,0.1,0.3,0,0.2,0S172.3,21.3,172.3,21.3z" class="st0"></path>
		<path d="M147.3,54c0.7,0,0.9-0.8,0.1-0.8C146.9,53.1,146.7,54,147.3,54z" class="st0"></path>
		<path d="M147.1,53.1C147,53.1,147,53.1,147.1,53.1L147.1,53.1z" class="st0"></path>
		<path d="M201.1,26.5c-0.2-0.1-0.3-0.1-0.5-0.2s-0.2,0,0.1,0.1C200.9,26.5,201.1,26.5,201.1,26.5z" class="st0"></path>
		<path d="M174.7,21c-0.2,0,0.4,0,0.3,0C174.9,21.1,174.8,21,174.7,21z" class="st0"></path>
		<path d="M123.9,49c0.4-0.2,0.2-0.5-0.2-0.2C123.4,49.1,123.6,49.3,123.9,49z" class="st0"></path>
		<path d="M126.3,85.4c-0.5,0.5,0.8,1.1,1,0.5C127.4,85.5,126.9,85,126.3,85.4z" class="st0"></path>
		<path d="M310,173.8c0,0.1,0,1.3,0.2,0.8C310.3,174.4,310.1,173.3,310,173.8z" class="st0"></path>
		<path d="M313.4,183.7c0,0.2-0.1,0.9,0,0.6C313.4,184.2,313.5,183.2,313.4,183.7z" class="st0"></path>
		<path d="M21.7,155.9c0,0.9,0.2,0.1,0.2-0.3C21.8,155.4,21.7,155.5,21.7,155.9z" class="st0"></path>
		<path d="M123.2,27.9c0.1-0.1-0.5,0.1-0.7,0.2C122.6,28.1,123.1,27.9,123.2,27.9z" class="st0"></path>
		<path d="M166.3,29.4c0.1,0,0.3-0.1,0.3-0.1c0-0.1-0.3,0-0.4,0C166,29.3,166.1,29.4,166.3,29.4z" class="st0"></path>
		<path d="M310.5,179.7c-0.2,0-0.1,1.3,0,1S310.6,179.9,310.5,179.7z" class="st0"></path>
		<path d="M169.7,21L169.7,21C169.6,20.9,169.7,21,169.7,21z" class="st0"></path>
		<path d="M189.8,28.3c-0.1-0.1-0.2-0.1-0.3-0.1C189.5,28.3,190.4,28.6,189.8,28.3z" class="st0"></path>
		<path d="M176.7,85.8c-0.6-0.2-1.1,0-0.6,0.3c0.1,0,0.1,0,0.6,0C177,86,177,85.9,176.7,85.8z" class="st0"></path>
		<path d="M174.7,21.1L174.7,21.1C174.8,21.1,174.8,21.1,174.7,21.1z" class="st0"></path>
		<path d="M145.8,23.9c0.1,0,0,0-0.2,0c-0.2,0.1-0.3,0.1-0.2,0.1C145.5,24,145.7,24,145.8,23.9z" class="st0"></path>
		<path d="M160.3,21.1C160.4,21.1,160.4,21.1,160.3,21.1C159.9,21.1,160.2,21.1,160.3,21.1z" class="st0"></path>
		<path d="M170.5,21C170.4,21,170.5,21,170.5,21C170.6,21,170.5,21,170.5,21z" class="st0"></path>
		<path d="M242,226.6c0,0.1,0.1,0.2,0.3,0.1c0.2-0.1,0.3,0,0.1-0.3C242.3,226.2,242,226.3,242,226.6z" class="st0"></path>
		<path d="M149.2,54.5c-0.2,0-0.8,0.3-0.3,0.2c0.3,0,0.6,0,1,0c0,0-0.2-0.1-0.3-0.1C149.4,54.5,149.3,54.5,149.2,54.5z" class="st0"></path>
		<path d="M172,21.1h-0.1C171.9,21.1,171.9,21.1,172,21.1C171.9,21.1,172.1,21.1,172,21.1z" class="st0"></path>
		<path d="M174.2,21.4L174.2,21.4C174.3,21.4,174.3,21.4,174.2,21.4z" class="st0"></path>
		<path d="M133.4,44.9c-0.3,0.3,0.3,0.2,0.2,0C133.6,44.8,133.5,44.8,133.4,44.9z" class="st0"></path>
		<path d="M161.2,22.3C161.2,22.3,161.2,22.2,161.2,22.3C161.1,22.2,161.1,22.3,161.2,22.3z" class="st0"></path>
		<path d="M150.2,22.7c0.3-0.1-0.3,0.1-0.4,0.1c-0.1,0-0.1,0,0,0C149.9,22.8,150.1,22.7,150.2,22.7z" class="st0"></path>
		<path d="M88.3,44c-0.1,0.1-0.1,0.1-0.3,0.2c-0.1,0.1-0.1,0.1,0,0C88.1,44.1,88.1,44.1,88.3,44
			C88.3,44,88.3,43.9,88.3,44z" class="st0"></path>
		<path d="M243.7,146.4c-0.8,0.2,0.3,0.5,0.6,0.3S244,146.3,243.7,146.4z" class="st0"></path>
		<path d="M179.1,21.6L179.1,21.6L179.1,21.6z" class="st0"></path>
		<path d="M171.9,21.4L171.9,21.4C171.8,21.4,171.8,21.4,171.9,21.4z" class="st0"></path>
		<path d="M172.4,21.5C172.5,21.5,172.5,21.5,172.4,21.5C172.4,21.4,172.4,21.5,172.4,21.5z" class="st0"></path>
		<path d="M158.5,32.4C158.7,32.5,158.7,32.4,158.5,32.4C158.3,32.3,158.2,32.4,158.5,32.4z" class="st0"></path>
		<path d="M198.3,26.2c-0.3-0.1,0.2,0.1,0.2,0.1C198.4,26.3,198.3,26.3,198.3,26.2z" class="st0"></path>
		<path d="M194.1,24.1H194c0,0-0.1,0,0,0C194,24.1,194.2,24.2,194.1,24.1z" class="st0"></path>
		<path d="M128.5,42c0-0.1-0.2,0-0.2,0.1C128.3,42.2,128.6,42.1,128.5,42z" class="st0"></path>
		<path d="M175.8,87.5c0,0.1,0.2,0,0.1,0C175.8,87.5,175.8,87.5,175.8,87.5z" class="st0"></path>
		<path d="M180.2,92.4c-0.2,0.1,0,0.2,0.1,0.2C180.3,92.5,180.3,92.3,180.2,92.4z" class="st0"></path>
		<path d="M122.8,53.5C122.8,53.6,123,53.4,122.8,53.5C122.9,53.4,122.8,53.4,122.8,53.5z" class="st0"></path>
		<path d="M121.9,53.2L121.9,53.2C121.9,53.3,122,53.2,121.9,53.2z" class="st0"></path>
		<path d="M140.1,29.4C140.1,29.4,140,29.4,140.1,29.4L140.1,29.4z" class="st0"></path>
		<path d="M157.2,32.6L157.2,32.6C157.2,32.6,157.3,32.6,157.2,32.6z" class="st0"></path>
		<path d="M191,22.9L191,22.9L191,22.9z" class="st0"></path>
		<path d="M134.6,170.6c0.1,0,0.2-0.2,0-0.3C134.5,170.3,134.5,170.7,134.6,170.6z" class="st0"></path>
		<path d="M118.2,29.7c0,0-0.2,0.1-0.1,0.1C118.2,29.8,118.3,29.7,118.2,29.7z" class="st0"></path>
		<path d="M314.3,167.1C314.3,167,314.3,167,314.3,167.1s0,0.1,0,0.1s0,0.1,0,0C314.3,167.2,314.3,167.2,314.3,167.1z" class="st0"></path>
		<path d="M116.4,38.1C116.3,38.2,116.3,38.2,116.4,38.1L116.4,38.1z" class="st0"></path>
		<path d="M149.2,23C149.1,23,149.1,23,149.2,23L149.2,23z" class="st0"></path>
		<path d="M207.2,308.3C207.2,308.3,207,308.4,207.2,308.3C207.1,308.4,207.1,308.3,207.2,308.3z" class="st0"></path>
		<path d="M163,44.6c-0.3,0.1,0.2,0.1,0.2,0C163.2,44.6,163.1,44.6,163,44.6z" class="st0"></path>
		<path d="M246.5,224.9l0.1-0.1C246.6,224.7,246.3,224.9,246.5,224.9C246.4,224.9,246.5,224.9,246.5,224.9z" class="st0"></path>
		<path d="M82.7,112.8c0.1,0,0.2-0.2,0-0.2C82.7,112.6,82.5,112.8,82.7,112.8z" class="st0"></path>
		<path d="M81.2,112c0-0.1-0.3,0.1-0.2,0.2C81,112.2,81.2,112.1,81.2,112z" class="st0"></path>
		<path d="M86.1,111.4C86.1,111.3,86,111.4,86.1,111.4L86.1,111.4z" class="st0"></path>
		<path d="M52.1,251.9C52.2,251.9,52.2,251.9,52.1,251.9C52.1,251.8,52.1,251.8,52.1,251.9z" class="st0"></path>
	</g>
</g>
</svg>
