<svg xml:space="preserve" style="enable-background:new 0 0 335 335;" viewBox="0 0 335 335" y="0px" x="0px" xmlns:xlink="http://www.w3.org/1999/xlink" xmlns="http://www.w3.org/2000/svg" id="Layer_1" version="1.1">
<style type="text/css">
	.st0{fill:#FFFFFF;}
	.st1{fill:none;}
</style>
<path d="M167.5,23.4c38.5,0,74.7,15,101.9,42.2s42.2,63.4,42.2,101.9s-15,74.7-42.2,101.9s-63.4,42.2-101.9,42.2
	s-74.7-15-101.9-42.2S23.4,206,23.4,167.5s15-74.7,42.2-101.9S129,23.4,167.5,23.4 M167.5,20.4c-81.3,0-147.1,65.9-147.1,147.1
	s65.9,147.1,147.1,147.1s147.1-65.9,147.1-147.1S248.8,20.4,167.5,20.4L167.5,20.4z" class="st0"></path>
<path d="M325.2,48.9c-0.5-0.3-0.6-0.3-0.3-0.2C325.2,48.9,326.3,49.5,325.2,48.9z" class="st0"></path>
<path d="M326.1,49.5c-0.2-0.2,0.8,0.5,0.5,0.3C326.4,49.7,326.3,49.5,326.1,49.5z" class="st0"></path>
<path d="M302.8,223.8c-0.1,0.1-2.2,4.8-2.8,6.2c-0.9,1.9-0.8,1.9,0.1,0C301.1,227.8,302,225.8,302.8,223.8z" class="st0"></path>
<path d="M300.3,105.6c0,0.1,0.1,0.2,0.1,0.3C300.6,106.2,300.3,105.5,300.3,105.6z" class="st0"></path>
<path d="M310,201.5c-0.2,0.6-1.5,5.5-2,7.3c-0.5,2-0.5,2,0.1,0C308.8,206.3,309.4,203.8,310,201.5z" class="st0"></path>
<path d="M304.4,115.6c0.3,0.9,0.7,1.8,1,2.7c0.7,1.9,0.8,1.9,0,0C305.1,117.4,302.9,111.7,304.4,115.6z" class="st0"></path>
<path d="M290.8,89.3c0.1,0.2-0.1-0.4-0.1-0.2C290.7,89.1,290.7,89.2,290.8,89.3z" class="st0"></path>
<path d="M291.8,244.8c11.7-17.5,18.9-43.2,20-57.4c0.2-2,0.2-2.1-0.1,0c-2.3,16.4-7.5,32.9-15.2,47.5
	c-3.2,6.3-7.7,13.5-12.2,19.5c-0.5,0.7-1,1.3-0.9,2.2c0,0.3,0.3,0.3,0.6-0.1C286.9,252.8,289.4,248.9,291.8,244.8z" class="st0"></path>
<path d="M288.1,84.3c-0.2-0.2-0.3-0.4-0.4-0.6C287.6,83.5,287.8,83.8,288.1,84.3c0.3,0.5,0.5,0.8,0.5,0.8
	C288.5,84.8,288.3,84.5,288.1,84.3z" class="st0"></path>
<path d="M313.6,156.8c0,0.6,0.2,5.8,0.3,7.7c0.1,2.1,0.1,2.1,0.1,0C313.9,161.7,313.8,159.2,313.6,156.8z" class="st0"></path>
<path d="M311.9,192c0.7-3.1,0.9-6.1,1.2-9.4c0.2-2.1,0.2-2.1,0,0c-0.2,1.8-0.3,3.5-0.5,5.1c-0.2,1.1-0.4,2.3-0.5,3.4
	C311.7,193,311.6,193.4,311.9,192z" class="st0"></path>
<path d="M131.6,26.9c-0.2,0-0.2,0.2,0,0.2c1.1-0.3,2-0.6,3-0.9c0,0,0,0,0-0.2C134,26,132.1,26.6,131.6,26.9z" class="st0"></path>
<path d="M53.5,70.9C53.2,71.2,53.2,71.2,53.5,70.9C53.6,70.7,53.6,70.7,53.5,70.9z" class="st0"></path>
<path d="M330.6,52.6c0,0-0.3-0.2-0.2-0.2C330.5,52.5,330.8,52.6,330.6,52.6z" class="st0"></path>
<path d="M292.3,90.8c-0.2-0.3-0.7-1.3-1.1-1.7c0,0.1,0,0.1-0.1,0.1s0,0.2,0.1,0.5c0.2,0.4,0.9,1.2,1,1.4
	C292.7,91.6,292.7,91.5,292.3,90.8z" class="st0"></path>
<path d="M289.1,249.2c-0.2,0.3-0.4,0.7-0.6,1c1.5-2,5.3-8.3,6.9-11.2c1-1.8,0.9-1.8-0.1-0.1
	C293.3,242.3,291.2,245.9,289.1,249.2z" class="st0"></path>
<path d="M83.7,55.6L83.7,55.6C83.9,55.6,83.9,55.6,83.7,55.6z" class="st0"></path>
<path d="M79.5,51.8c1.6-0.8,2.3-1.1,3.7-2c0.9-0.6,1.4-0.5,1.1,0c-0.3,0.6,0,1.2,0.6,1.4c0.6,0.2,0.5,1.1-0.2,2
	c-1.7,2.7,0.9,0.2,0.3,1.7c-0.3,0.5-0.8,1.2-1.2,1.7c-0.5,0.5-0.3,0.6,0.2,0.3c0.6-0.3-0.2,0.6-1.7,1.7c-1.6,1.1-2.7,2.2-2.5,2.2
	c0.2,0.3,0.5-0.2,0.5,0.2c0.5,0.9-0.6,2.5-2.2,5.9c-1.4,2.3-4.4,9.8-6.1,10.1c-0.6-0.2-1.9,1.4-1.6,3.3c0.3,1.9-0.8,5.1-2.8,7.6
	c-9.5,11.5-16.2,27.6-13.7,38.5c1.4,3.9,4.2,8,6.2,11.9c1.6,2.8,2,4.5,2.2,3.3c0.2-1.1,0.9-1.9,1.6-1.9c0.6,0.2,2.3,1.4,2.5,3.3
	c0.3,1.1-0.2,4.1,0.3,5.6l13.1,30.1c1.2,3,4.4,7,7,8.7c3.4,2,8.9,4.8,18.2,8.4l33.5,10.3c0.6,0.2,1.4,0.3,2.2,0.3
	c1.6,0,5.5,4.2,7.2,6.7c1.9,2.7,2.5,5.5,3,5.6c0.5,0.2,3.3,1.1,6.1,2.5c3.7,1.9,10.9,6.7,14,7.2c0.6-0.2,0.9-0.8,0.8-1.4
	c-0.2-0.6,0.5-2,1.4-2.8c0.9-0.9-0.5-1.1-3.7-1.2c-11.9-1.1-13.7-12.2-10.5-17.9c4.1-8.4,0.2-8.4-18.2-8.4c-0.2,0-0.2,0-0.2,0
	c-0.2,0-0.6-0.2-1.1-0.5c-0.5-0.3,0.6-2.5,2-5.5c0.9-1.9,2.2-4.8,3.9-9.2c1.2-3-0.3-6.2-3.6-5.9c-1.1,0.2-2.2,0.3-3.3,0.5
	c-3.1,0.8-5.1,5-6.9,7c-1.7,2-6.1,3-9.2,2.3c-36.2-7.8-8.6-34.2-8.1-34.5c7-5.5,20.9,1.1,26.4-5.9c0-0.6-0.3-1.1-0.8-0.9
	c-0.8,0-0.9-0.2-0.5,0c1.9,0.2,2.5-0.5,7-0.6c6.4-0.3,11.1,1.1,14.3,2.5c4.4,2,4.4,9,7.3,12.5c2,2.5,6.6,1.6,6.4-1.7
	c-0.3-5.6-6.6-11.1-3.1-17c1.9-3.3,5.1-4.8,8.4-6.4c3.9-2,6.9-4.4,9.4-5.1c0.2-1.2-0.5-1.6,1.1-2c0.6-0.3,1.1-0.9,1.1-1.6
	c0-0.6-0.3-3.3-0.8-5.8c-0.5-2.7-0.5-4.7-0.3-4.7c0.2,0,0.8,0.9,1.2,2.2c1.2,2.7,2.7,1.1,2.8-0.6c0-0.6,1.6-1.7,3-3.3
	c1.2-1.6,2.3-3.6,3.4-4.2c1.1-0.6,3.4-1.7,5.8-2c2.3-0.3,1.2-3.3,3.1-5.9c1.1-1.7,4.2-3.4,10.6-5.5c3.1-0.9,5.3-0.6,4.5,0.5
	c-3.7,6.1,7,1.2,9.7-0.2c3.3-1.7,7.2-3.9,4.4-5c-0.6,0-1.2,0.5-1.6,1.1c-0.5,1.1-6.2,1.4-8.6-0.3c-2.8-1.7-3.1-5-3.7-5
	s-0.3-0.6,0.8-1.2c0.9-0.8-0.5-3.6-3.6-3.1c-1.2,0.2-2.7,0.6-4.4,1.2c-3,1.2-4.1,0.2-1.9-2.2c6.9-6.9,16.7-4.4,25.4-5.5
	c3.1-0.3,3.7-3,1.2-5c-1.9-1.6-4.4-3.6-8-6.6c-3.3-2.7-6.2-7.3-9.2-10.3c-2.3-2.2-5.1-0.9-6.7,0.2c-1.6,1.1-4.8,0.8-6.9-0.8
	c-2-1.6-3.9-5.1-7-6.1c-3.3-1.1-10.9-3.6-12,0.5c-0.3,1.9-0.2,3.9-1.1,4.8c-0.8,0.9,1.7,2.7,2.3,5.8c0.3,1.2-0.3,2.5-1.7,3.7
	c-2.5,2-5.9,5.1-7.2,8.3c-1.1,3-3.7,4.1-4.2,2.8c-0.5-1.2-1.1-2.5-1.4-2.7c-0.3-0.2-0.3-0.6,0-0.8c0.3-0.2,0.3-1.7-0.5-3.4
	c-0.8-1.7-4.7-3.3-7.8-4.1c-3.4-1.1-14-3-15.1-5.9c-0.3-1.2-0.9-2.2-1.4-2.3c-0.6,0-0.5-2.8,1.7-5c4.2-3.9,10.3-6.2,15.4-8.7
	c4.1-1.6,8.9-4.7,12.8-5.1c2.5-0.3,4.4-1.7,4.4-2.3s0.3-1.4,0.8-1.7c0.5-0.3-1.2-3.6-4.1-2.2c-2,1.1-5.8,4.1-5.6,3.3
	c-0.2-0.6-1.1-1.4-2-2c-2.5-2.2-0.6-5.9,2.5-6.9c5.8-2,0.8-2.3-3.3,0c-2.2,1.1-6.4,4.4-6.2,4.7c0,0.3,0,0.9,0.2,1.4
	c0,0.5-1.1,1.7-2.7,2.5c-1.6,0.8-2.7,1.1-2.5,0.5c0.2-0.6,0.8-1.2,1.2-1.4c0.6-0.2,1.1-0.8,1.1-1.4c0-0.6-1.4-0.6-3.1,0.2
	c-1.7,0.8-4.1,2.8-6.4,2.7c-2.3,0-4.4-2-5.5-1.7c-1.1,0.2-2.8,1.1-3.7,1.9c-0.9,0.8-1.9,1.1-2.3,0.6c-0.3-0.5-1.7-0.8-3-0.6
	c-1.2,0.2-1.9-0.2-1.4-0.5c1.1-1.6-2.2-3-3.7-3c-1.2,0-1.9-0.2-1.4-0.6c0.5-0.5-1.6-0.2-4.7,0.3c-3.1,0.5-5.6,0.9-5.6,0.8
	c0-0.6-0.5-1.4,0.2-1.9c-16.2,5.5-34,14.5-48.5,24c-3.7,2.5-1.2,0.9,0.9-0.3c2.8-1.7,3.3-1.9,1.2-0.5C78.9,51.7,78.3,52.5,79.5,51.8
	z M74.7,77.7c0.2,0.2-0.3,0.3-0.5,0.2C74.2,77.9,74.5,77.7,74.7,77.7z M73.1,84.9c-1.1,0.3-1.2-0.5-0.5-0.9c0.8-0.5,0.8-0.6,1.1-1.1
	c0.6-1.6-0.9-1.2-0.3-2.8c0.5-1.1,0.9-1.4,1.1-0.6c0,0.2,0,0.3,0.2,0.3c0.5,0.2,0.8,1.6,0.8,2.2C75.3,83.4,74.2,84.4,73.1,84.9z
	 M83,58.9L83,58.9L83,58.9z M85.6,55.7C85.8,55.6,85.8,55.7,85.6,55.7L85.6,55.7z M85.8,53.7L85.8,53.7
	C85.8,53.9,85.8,53.9,85.8,53.7z M239.7,92.1c0.3,0.2-0.3,0.2-0.5,0C239.1,91.9,239.6,91.9,239.7,92.1z M229.7,93.5
	c0.3,0.3-0.8,0.2-0.3,0C229.6,93.5,229.7,93.5,229.7,93.5z M238.8,67.4c-0.6,0.9-1.4,1.2-2.2,0.8c0,0,0.2-0.8,0.9-0.8
	C238.1,67.3,238.8,67.4,238.8,67.4z M211.8,52.9c0.3,0-0.2,0.3-0.2,0.2c-0.2,0-0.2-0.2,0-0.2C211.5,52.9,211.6,52.9,211.8,52.9z
	 M211,86.6c0.3,0.2-0.3,0.5-0.3,0.2C210.7,86.6,210.9,86.5,211,86.6z M210.4,87.4c-0.2,0.2-0.2,0.2-0.3,0.2
	C209.8,87.3,210.5,87.1,210.4,87.4z M175.6,37c-0.8,0.2-1.2,0.3-1.7-0.2c-0.3-0.3,0.2-0.9,0.8-0.6C175.3,36.4,175.8,37,175.6,37z
	 M163.6,31.7l0.6-0.3c0.3,0,0.5,0.2,0.3,0.3C164.2,32.2,163.1,32.2,163.6,31.7z M154.4,30.3c-0.2,0.2-0.5,0.2-0.5,0.3
	C153.1,30.6,154.2,30.2,154.4,30.3z M132.7,28.6c0.5-0.2,0.8-0.2,0.6,0c-0.9,0.3-1.1,0.5-1.2,0.5c-0.2,0,0-0.2,0-0.2
	C131.9,28.8,132.4,28.6,132.7,28.6z M129.9,29.4c-0.3,0.2-0.6,0.3-0.9,0.3c-0.5,0.2-0.5,0,0-0.2C129.4,29.4,130.1,29.4,129.9,29.4z" class="st0"></path>
<path d="M62.4,145.3C62.5,146.1,62.7,146.1,62.4,145.3C62.5,144.5,62.4,144.5,62.4,145.3z" class="st0"></path>
<path d="M61.3,158.8c1.4,2.2,5.8,10.9,7.6,10.3c-0.3-3.9-4.1-11.5-5.1-16.7c-0.8-3.1-1.2-3.7-2.5-1.7
	C60,152.8,59.7,156,61.3,158.8z" class="st0"></path>
<path d="M78.9,63.7L78.9,63.7L78.9,63.7z" class="st0"></path>
<path d="M175.9,223.1C176.2,223.1,176.2,223,175.9,223.1C175.6,223,175.6,223.1,175.9,223.1z" class="st0"></path>
<path d="M257.2,83.2c-0.6-0.6-0.9-2-2-2.2c-0.8-0.2-3,0.3-3.7-0.2c-0.9-0.5-1.6-1.7-2.2-1.7c-0.6,0.2-1.2-0.6-1.1-1.2
	c0.2-0.3,0.3-0.6,0.6-0.9c1.1-1.7-0.5-2.2-0.8-2.2c-2.3,0.2-2.7,5.1-3.6,7c-1.2,1.4-0.9,2.5-1.9,3.9c0,0,0,0,0.2,0.3
	c0.2,0.2,1.6,0.3,3.4,0.5c1.7,0.2,8.7-0.6,7.3,1.7c0,0.2,1.1-0.5,2.5-1.4c1.9-1.2,1.9-1.4,2.2-2C258.7,84,258,84,257.2,83.2z" class="st0"></path>
<path d="M188.7,40.8c0.2-0.3,0-0.5-0.8-0.6c-0.6-0.2-1.4-1.2-2.5-1.9c-0.5-0.3-1.2-0.6-2.2-0.9
	c-0.6-0.3-1.2-0.2-1.7-0.3c-0.3-0.5,0.5-0.5,0.8-0.8c0,0,0.2-0.3-0.3-0.3c-3.1,0.2-3.3,3.7-5.6,4.8c-1.2,0.6,1.2,0.2,1.9,0.3
	c0,0,0.2,0.3,0.3,0.6c0.2,0.3,1.4,0.2,2.7-0.5c1.4-0.6,3.3-0.9,4.1-0.5C186.4,41.1,187.8,41.9,188.7,40.8z" class="st0"></path>
<path d="M190,177.3c-5.6-2.8-19.2-8.1-22.1-7.3c-2.8,0-4.8,0.3-6.2,0.6c-3.1,0.8-2.7,3.1-1.1,2.7c2-0.5,3-1.9,5.5-1.9
	c0.8,0,1.1,0.3,1.7,1.1c0.3,0.3,0.3,0.5,6.4,2c3.1,0.8,6.2,3.1,8,3.9c1.7,0.8,3.1,1.6,3,2.2c-0.2,0.6,2.2,1.1,5.1,1.1
	C200.1,181.5,195.4,179.6,190,177.3z" class="st0"></path>
<path d="M209,181.8c-1.6,0.2-3,0.6-4.5,0.3c-1.7-0.2-2.7,0.6-2,1.9c0.6,1.2-0.3,3.3-2.2,3c-1.9-0.3-3,1.2-0.9,1.2
	c1.2,0.2,4.4-0.6,5.9-0.2c1.1,0.5,2.5,1.6,3.6,0.3c0.3-0.3,0.6-0.6,1.1-0.8c0,0,3.3-0.2,8-0.5c0.2,0,0.5,0,0.6,0
	c0.3,0,0.5-1.1-0.6-1.9c-0.5-0.3-1.1-0.6-2-1.1C211.3,181.9,209.8,181.9,209,181.8z" class="st0"></path>
<path d="M200.2,31.9c0.5-1.7-2.7-1.1-3.3-0.3c0,0-1.2,1.7,1.6,1.4C199.6,32.8,200.2,32.5,200.2,31.9z" class="st0"></path>
<path d="M286,83.2l2.5,3.7c0,0,0,0,0.1,0s0.1,0,0.1,0c-0.1-0.5-0.2-0.6-1.6-2.8c-0.3-0.4-1-1.5-1.2-1.5
	C285.9,82.8,285.9,83,286,83.2z" class="st0"></path>
<path d="M68.6,58.9c1.4-0.8,2.5-1.9,3.9-2.7c0.9-0.6,0.2-0.3-1.1,0.5C70.6,57.2,65.2,60.7,68.6,58.9z" class="st0"></path>
<path d="M82.6,56.4c-1.7,2-1.7,2-3,3.6c-0.2,0.2,0.9-0.6,2.3-1.9c1.4-1.2,2.3-2.2,2.2-2.2c-0.3-0.2-0.5-0.2-0.5-0.2
	C83.4,55.9,83,56.1,82.6,56.4z" class="st0"></path>
<path d="M83.7,55.6L83.7,55.6C83.9,55.6,83.9,55.6,83.7,55.6z" class="st0"></path>
<path d="M74.7,67.3c-1.4-0.3-2.2,1.6-3,2.7c-0.5,0.9,0.2,0.8,1.2-0.3C73.9,68.4,74.8,67.4,74.7,67.3z" class="st0"></path>
<path d="M78.9,63.7L78.9,63.7L78.9,63.7z" class="st0"></path>
<path d="M80.1,61.1c-1.2,0.9-1.7,1.7-2.3,2.5c-0.5,0.6-0.8,1.1-0.6,1.2c0.5,0.2,1.2-0.5,1.7-0.9c0,0,0.3-0.6,0.8-1.1
	C80,62,80.9,60.6,80.1,61.1z" class="st0"></path>
<path d="M185.1,43c0.3-0.3-0.5-0.2-1.2-0.2c-1.6,0-2.2,0.3-2.7,1.2C181.2,44.5,183.1,44.8,185.1,43z" class="st0"></path>
<path d="M257.8,87.4c0,0.9,2.8,2.5,3,0.9c0-0.3,0.2-0.8,0.2-1.2C260.1,86.3,257.6,85.4,257.8,87.4z" class="st0"></path>
<path d="M231.4,79.9c-2-0.6-2.5,0.6-0.5,1.2C233,81.8,233.5,80.5,231.4,79.9z" class="st0"></path>
<path d="M283.8,79.6c-0.2-0.3-0.4-0.3-0.3-0.1c0.3,0.6,0.8,1.2,1.3,1.7c0.2,0.2,0.1,0-0.1-0.4
	C284.4,80.4,284.1,80,283.8,79.6z" class="st0"></path>
<path d="M182.8,187.1c-0.6,0.2-1.1,1.1-0.3,1.6c1.7,0.9,3.1,0.8,5.5-0.3C187.6,187.5,184.2,186.8,182.8,187.1z" class="st0"></path>
<path d="M234.4,89.9c-1.6,0-3.1,0-4.7,0c0,0,0,0.2,0.2,0.2c0.6,0.5,3.7,1.4,4.4,0.6c0.2-0.3,0.6-0.6,0.6-0.8
	C234.7,89.9,234.6,89.9,234.4,89.9z" class="st0"></path>
<path d="M189,44.2c-0.3,0.2-0.9,0.6-0.8,1.1c0.2,0.6,1.2,0.5,1.6,0C190.4,44.7,189.8,43.9,189,44.2z" class="st0"></path>
<path d="M224.7,187.7c-0.2,0.2-0.2,0.6,0.2,0.8c1.7,0.6,2.3,0.6,4.7-0.8C228.9,187.2,225.7,186.8,224.7,187.7z" class="st0"></path>
<path d="M186.7,60.1c-0.5,0.5,0.2,0.9,0.8,0.6c0.3-0.2,0.6-0.3,0.9-0.5C188.4,59.6,187.5,59.5,186.7,60.1z" class="st0"></path>
<path d="M202,31.7c1.6,0-0.2-0.6-0.6-0.3C201,31.7,201.8,31.7,202,31.7z" class="st0"></path>
<path d="M192.9,41.7c0,0.3-0.2,0.3,0.6,0.5c0.3,0.2,0.5-0.3,0.2-0.5C193.5,41.6,193.1,41.4,192.9,41.7z" class="st0"></path>
<path d="M180.7,70.1c0.5,0.2,0.9-0.3,0.5-0.8c-0.3-0.3-0.9-0.3-1.4-0.2C179.2,69.8,180.1,70.1,180.7,70.1z" class="st0"></path>
<path d="M326.4,57.3c0.5,0.3,0.6,0.3,0.3,0C326.4,56.8,326,56.8,326.4,57.3z" class="st0"></path>
<path d="M284.9,85.2c0.1,0.3,0.3,0.5,0.6,0.7c0.1,0-0.1-0.2-0.1-0.3C285.3,85.3,284.9,84.9,284.9,85.2z" class="st0"></path>
<path d="M194.6,29.2c-0.5,0.2-0.3,0.3,0.2,0.2C195.3,29.2,195.1,28.9,194.6,29.2z" class="st0"></path>
<path d="M193.7,27.8c-0.3,0-0.3,0.3,0,0.3C194,28,194,27.8,193.7,27.8z" class="st0"></path>
<path d="M246.9,216.9c-0.5,1.9,0.6,2.3,1.7,0.8c0.2,0-0.2-0.2-0.3-0.5C248,216.6,247.3,216.1,246.9,216.9z" class="st0"></path>
<path d="M184,35.9c0.2,0,0.3-0.2,0.2-0.3c-0.2,0-0.5-0.3-0.5,0C183.7,35.9,183.7,35.9,184,35.9z" class="st0"></path>
<path d="M183.1,164.9c0.8-0.6,0-1.9-0.8-1.4C181.2,164,182,165.6,183.1,164.9z" class="st0"></path>
<path d="M182.5,165.4L182.5,165.4L182.5,165.4z" class="st0"></path>
<path d="M197.6,28.8c-0.3,0.5,0.6,0.3,0.3,0C197.7,28.6,197.6,28.6,197.6,28.8z" class="st0"></path>
<path d="M200.6,30.3c-0.2-0.2-0.3,0-0.2,0.2C200.6,30.6,200.7,30.5,200.6,30.3z" class="st0"></path>
<path d="M162.5,29.7c0,0.2,0.3,0,0.3-0.2C162.7,29.4,162.5,29.5,162.5,29.7z" class="st0"></path>
<path d="M182.8,165.6l-0.2-0.2C182.3,165.4,182.9,165.7,182.8,165.6z" class="st0"></path>
<path d="M183.9,166.5c0,0-0.2-0.3-0.5-0.5C182.6,165.6,183.9,166.6,183.9,166.5z" class="st0"></path>
<path d="M163.1,175.2c0.3,0.3,0.5,0.2,0.8-0.2c0,0,0-0.3-0.3-0.5C163.1,174.4,162.8,174.8,163.1,175.2z" class="st0"></path>
<path d="M322.8,51.2c0,0,0.6,0.5,0.5,0.3C323.5,51.5,322.7,51.1,322.8,51.2z" class="st0"></path>
<path d="M212.9,212.2c0.5,0.3,0.9,0,0.6-0.5C213.3,211.4,212.4,211.9,212.9,212.2z" class="st0"></path>
<path d="M220.1,46.4c0.2,0.2,0.3,0.2,0.3,0C220.5,46.1,219.4,45.9,220.1,46.4z" class="st0"></path>
<path d="M118.1,177.9c-0.2,0.4,0.3,0.8,0.6,0.5C119,178.2,118.3,177.5,118.1,177.9z" class="st0"></path>
<path d="M141.1,147.1c-0.2,0.3-0.2,0.3-0.2,0.3c0,0.2,0.2,0.3,0.5,0.5C141.4,148.1,141.4,146.7,141.1,147.1z" class="st0"></path>
<path d="M213.8,49.4c0,0.2,0.5,0,0.3-0.2C214,48.9,213.8,49,213.8,49.4z" class="st0"></path>
<path d="M195.6,41.2c0,0.2,0.2,0.2,0.2,0H195.6z" class="st0"></path>
<path d="M170.6,28.3c0.2,0,0.5-0.3,0.2-0.2C170.8,28.1,170.5,28.5,170.6,28.3z" class="st0"></path>
<path d="M195.9,28.1C195.7,28.3,196,28.3,195.9,28.1L195.9,28.1z" class="st0"></path>
<path d="M160.2,30L160.2,30C160,30,160,30,160.2,30z" class="st0"></path>
<path d="M118.2,177.5C118.2,177.4,118.2,177.4,118.2,177.5L118.2,177.5z" class="st0"></path>
<path d="M312.2,170.7C312.2,170.8,312.2,170.8,312.2,170.7C312.2,170.6,312.2,170.5,312.2,170.7z" class="st0"></path>
<path d="M200.6,177.3c0-0.2-0.6,0.2-0.3,0.2C200.2,177.4,200.7,177.4,200.6,177.3z" class="st0"></path>
<path d="M279.9,110.8l0.1,0.1C280.2,110.9,279.9,110.6,279.9,110.8z" class="st0"></path>
<path d="M278.4,110.2C278.6,110.3,278.5,109.9,278.4,110.2L278.4,110.2z" class="st0"></path>
<path d="M281.7,109.7C281.7,109.7,281.6,109.5,281.7,109.7C281.6,109.7,281.7,109.7,281.7,109.7z" class="st0"></path>
<path d="M271.5,369.1C271.7,368.9,271.4,368.9,271.5,369.1L271.5,369.1z" class="st0"></path>
<path d="M281.8,263.3c-0.3,0,0,0.5,0.2,0.3v-0.2C281.8,263.5,281.8,263.3,281.8,263.3z" class="st1"></path>
<path d="M285.9,258.5c-1.4,0.3-1.4,0.8-0.8,2.2c1.2,1.9,2.2-0.6,2-2.2C287.1,258.4,286.7,258.4,285.9,258.5z" class="st1"></path>
<path d="M308.5,267.9c0,0.2,0,0.6,0.2,0.3C308.8,268,308.5,267.4,308.5,267.9z" class="st1"></path>
<path d="M291.8,264.8c0.5,0.6,1.6,0.2,2.3-0.2c0.2,0-0.3-0.2-0.8-0.3C292.7,264.1,291.8,264.3,291.8,264.8z" class="st1"></path>
<path d="M289.3,258.2c-1.1-0.2-1.1,0.6,0,0.6C290.4,258.7,290.4,258.4,289.3,258.2z" class="st1"></path>
<path d="M206.8,217.5c-3,1.7-0.6,5.8,1.9,3.9C210.1,220.1,208.2,217.3,206.8,217.5z" class="st0"></path>
<path d="M287.7,249c-0.4-1.6-0.8-3.3-1.5-4.8c-1.2-3-5.8-5.8-8.7-7l-23.9-10.8c-3-1.2-5.1-2.8-5-3.4
	c0.2-0.6-0.5-2.7-2.3-3.4c-1.9-0.8-3.6-1.6-3.7-2.2c-0.2-0.6-3-1.2-6.1-1.4c-6.7-0.3-17.2-0.8-23.7-0.9c-3.7-0.3-8.1-0.3-6.1-2.7
	c0.9-0.5,0.6-2.7-0.5-2.3c-3.6,2.8-11.9,7.5-16.1,10.8c-2.5,1.9-6.2,2.7-8.7,2.2c-2.5-0.5-3.9-0.2-3.1,0.2c0.8,0.3,2,3.3,3,6.4
	c1.7,6.1,3.9,13.3-0.6,18.4c-4.4,4.4-13.3,12.6-9.5,18.9c0.6,0.3,1.1,1.1,1.2,1.7c0.2,0.6-2.5,2.5-3.6,5.5c-1.6,4.2,2.7,7.5,3.3,8
	c0.6,0.5,1.2,0.9,1.7,1.4c3.1,3.6,3.9,4.7,15,26.2c0.3,0.5,0.6,1,0.9,1.5C230.3,304.8,265.5,281.6,287.7,249z M208.7,221.4
	c-2.5,1.9-4.8-2.2-1.9-3.9C208.2,217.3,210.1,220.1,208.7,221.4z" class="st0"></path>
</svg>
